<mxfile host="app.diagrams.net" modified="2022-04-03T19:01:02.639Z" agent="5.0 (X11; Linux x86_64) AppleWebKit/537.36 (KHTML, like Gecko) Chrome/98.0.4758.102 Safari/537.36" etag="I-SVp3Iv3hGRI56ehZuG" version="17.4.0" type="github">
  <diagram id="XJavV_3vWSNBEwFHe13u" name="Page-1">
    <mxGraphModel dx="1422" dy="698" grid="1" gridSize="10" guides="1" tooltips="1" connect="1" arrows="1" fold="1" page="1" pageScale="1" pageWidth="850" pageHeight="1100" math="0" shadow="0">
      <root>
        <mxCell id="0" />
        <mxCell id="1" parent="0" />
        <mxCell id="wK370MBjEnxhLdyrCitH-6" style="edgeStyle=orthogonalEdgeStyle;rounded=0;orthogonalLoop=1;jettySize=auto;html=1;exitX=1;exitY=0.5;exitDx=0;exitDy=0;entryX=0;entryY=0.5;entryDx=0;entryDy=0;endArrow=none;endFill=0;" edge="1" parent="1" source="rPzzLI58Q-UhKmW3YBb_-1" target="wK370MBjEnxhLdyrCitH-5">
          <mxGeometry relative="1" as="geometry" />
        </mxCell>
        <mxCell id="rPzzLI58Q-UhKmW3YBb_-1" value="&lt;font style=&quot;font-size: 20px&quot;&gt;Pizzas&lt;/font&gt;" style="rounded=0;whiteSpace=wrap;html=1;" parent="1" vertex="1">
          <mxGeometry x="25" y="90" width="210" height="160" as="geometry" />
        </mxCell>
        <mxCell id="rPzzLI58Q-UhKmW3YBb_-6" value="&lt;span style=&quot;font-size: 20px&quot;&gt;Funcionários&lt;/span&gt;" style="rounded=0;whiteSpace=wrap;html=1;" parent="1" vertex="1">
          <mxGeometry x="610" y="140" width="210" height="160" as="geometry" />
        </mxCell>
        <mxCell id="rPzzLI58Q-UhKmW3YBb_-7" value="&lt;span style=&quot;font-size: 20px&quot;&gt;Pedidos&lt;/span&gt;" style="rounded=0;whiteSpace=wrap;html=1;" parent="1" vertex="1">
          <mxGeometry x="40" y="650" width="210" height="160" as="geometry" />
        </mxCell>
        <mxCell id="rPzzLI58Q-UhKmW3YBb_-8" value="&lt;span style=&quot;font-size: 20px&quot;&gt;Bairros&lt;/span&gt;" style="rounded=0;whiteSpace=wrap;html=1;" parent="1" vertex="1">
          <mxGeometry x="610" y="650" width="210" height="160" as="geometry" />
        </mxCell>
        <mxCell id="rPzzLI58Q-UhKmW3YBb_-10" value="" style="edgeStyle=orthogonalEdgeStyle;rounded=0;orthogonalLoop=1;jettySize=auto;html=1;fontSize=20;endArrow=none;endFill=0;" parent="1" source="rPzzLI58Q-UhKmW3YBb_-9" target="rPzzLI58Q-UhKmW3YBb_-6" edge="1">
          <mxGeometry relative="1" as="geometry" />
        </mxCell>
        <mxCell id="rPzzLI58Q-UhKmW3YBb_-14" style="edgeStyle=orthogonalEdgeStyle;rounded=0;orthogonalLoop=1;jettySize=auto;html=1;exitX=0;exitY=0.25;exitDx=0;exitDy=0;entryX=0.917;entryY=0;entryDx=0;entryDy=0;entryPerimeter=0;fontSize=18;endArrow=none;endFill=0;" parent="1" source="rPzzLI58Q-UhKmW3YBb_-9" target="rPzzLI58Q-UhKmW3YBb_-12" edge="1">
          <mxGeometry relative="1" as="geometry" />
        </mxCell>
        <mxCell id="rPzzLI58Q-UhKmW3YBb_-15" style="edgeStyle=orthogonalEdgeStyle;rounded=0;orthogonalLoop=1;jettySize=auto;html=1;exitX=0;exitY=0.75;exitDx=0;exitDy=0;entryX=0.348;entryY=-0.01;entryDx=0;entryDy=0;entryPerimeter=0;fontSize=18;endArrow=none;endFill=0;" parent="1" source="rPzzLI58Q-UhKmW3YBb_-9" target="rPzzLI58Q-UhKmW3YBb_-13" edge="1">
          <mxGeometry relative="1" as="geometry" />
        </mxCell>
        <mxCell id="rPzzLI58Q-UhKmW3YBb_-9" value="" style="triangle;whiteSpace=wrap;html=1;fontSize=20;rotation=-90;" parent="1" vertex="1">
          <mxGeometry x="692.5" y="327.5" width="45" height="80" as="geometry" />
        </mxCell>
        <mxCell id="rPzzLI58Q-UhKmW3YBb_-20" style="edgeStyle=orthogonalEdgeStyle;rounded=0;orthogonalLoop=1;jettySize=auto;html=1;exitX=0.5;exitY=1;exitDx=0;exitDy=0;entryX=0.5;entryY=0;entryDx=0;entryDy=0;fontSize=18;endArrow=none;endFill=0;" parent="1" source="rPzzLI58Q-UhKmW3YBb_-12" target="rPzzLI58Q-UhKmW3YBb_-19" edge="1">
          <mxGeometry relative="1" as="geometry" />
        </mxCell>
        <mxCell id="rPzzLI58Q-UhKmW3YBb_-12" value="&lt;font style=&quot;font-size: 18px&quot;&gt;Motoristas&lt;/font&gt;" style="rounded=0;whiteSpace=wrap;html=1;fontSize=20;" parent="1" vertex="1">
          <mxGeometry x="560" y="420" width="120" height="40" as="geometry" />
        </mxCell>
        <mxCell id="rPzzLI58Q-UhKmW3YBb_-17" style="edgeStyle=orthogonalEdgeStyle;rounded=0;orthogonalLoop=1;jettySize=auto;html=1;exitX=0.5;exitY=1;exitDx=0;exitDy=0;entryX=0.5;entryY=0;entryDx=0;entryDy=0;fontSize=18;endArrow=none;endFill=0;" parent="1" source="rPzzLI58Q-UhKmW3YBb_-13" target="rPzzLI58Q-UhKmW3YBb_-16" edge="1">
          <mxGeometry relative="1" as="geometry" />
        </mxCell>
        <mxCell id="rPzzLI58Q-UhKmW3YBb_-13" value="&lt;span style=&quot;font-size: 18px&quot;&gt;Atendentes&lt;/span&gt;" style="rounded=0;whiteSpace=wrap;html=1;fontSize=20;" parent="1" vertex="1">
          <mxGeometry x="710" y="420" width="120" height="40" as="geometry" />
        </mxCell>
        <mxCell id="rPzzLI58Q-UhKmW3YBb_-18" style="edgeStyle=orthogonalEdgeStyle;rounded=0;orthogonalLoop=1;jettySize=auto;html=1;exitX=0.5;exitY=1;exitDx=0;exitDy=0;entryX=0.75;entryY=0;entryDx=0;entryDy=0;fontSize=18;endArrow=none;endFill=0;" parent="1" source="rPzzLI58Q-UhKmW3YBb_-16" target="rPzzLI58Q-UhKmW3YBb_-7" edge="1">
          <mxGeometry relative="1" as="geometry">
            <Array as="points">
              <mxPoint x="780" y="630" />
              <mxPoint x="197" y="630" />
            </Array>
          </mxGeometry>
        </mxCell>
        <mxCell id="rPzzLI58Q-UhKmW3YBb_-16" value="Emitem" style="rhombus;whiteSpace=wrap;html=1;fontSize=18;" parent="1" vertex="1">
          <mxGeometry x="730" y="490" width="100" height="100" as="geometry" />
        </mxCell>
        <mxCell id="rPzzLI58Q-UhKmW3YBb_-21" style="edgeStyle=orthogonalEdgeStyle;rounded=0;orthogonalLoop=1;jettySize=auto;html=1;exitX=0.5;exitY=1;exitDx=0;exitDy=0;entryX=0.25;entryY=0;entryDx=0;entryDy=0;fontSize=18;endArrow=none;endFill=0;" parent="1" source="rPzzLI58Q-UhKmW3YBb_-19" target="rPzzLI58Q-UhKmW3YBb_-8" edge="1">
          <mxGeometry relative="1" as="geometry">
            <Array as="points">
              <mxPoint x="620" y="610" />
              <mxPoint x="663" y="610" />
            </Array>
          </mxGeometry>
        </mxCell>
        <mxCell id="rPzzLI58Q-UhKmW3YBb_-19" value="&lt;font style=&quot;font-size: 18px&quot;&gt;Entregam&lt;/font&gt;" style="rhombus;whiteSpace=wrap;html=1;fontSize=18;" parent="1" vertex="1">
          <mxGeometry x="570" y="490" width="100" height="100" as="geometry" />
        </mxCell>
        <mxCell id="rPzzLI58Q-UhKmW3YBb_-22" value="&lt;span style=&quot;&quot;&gt;Nº&lt;/span&gt;" style="text;html=1;strokeColor=none;fillColor=none;align=center;verticalAlign=middle;whiteSpace=wrap;rounded=0;fontSize=18;labelBackgroundColor=default;" parent="1" vertex="1">
          <mxGeometry x="35" y="10" width="40" height="20" as="geometry" />
        </mxCell>
        <mxCell id="rPzzLI58Q-UhKmW3YBb_-23" value="Nome" style="text;html=1;strokeColor=none;fillColor=none;align=center;verticalAlign=middle;whiteSpace=wrap;rounded=0;fontSize=18;" parent="1" vertex="1">
          <mxGeometry x="95" y="10" width="40" height="20" as="geometry" />
        </mxCell>
        <mxCell id="rPzzLI58Q-UhKmW3YBb_-24" value="Ingredientes" style="text;html=1;strokeColor=none;fillColor=none;align=center;verticalAlign=middle;whiteSpace=wrap;rounded=0;fontSize=18;" parent="1" vertex="1">
          <mxGeometry x="185" y="10" width="40" height="20" as="geometry" />
        </mxCell>
        <mxCell id="rPzzLI58Q-UhKmW3YBb_-25" value="$p" style="text;html=1;strokeColor=none;fillColor=none;align=center;verticalAlign=middle;whiteSpace=wrap;rounded=0;fontSize=18;" parent="1" vertex="1">
          <mxGeometry x="255" y="10" width="40" height="20" as="geometry" />
        </mxCell>
        <mxCell id="rPzzLI58Q-UhKmW3YBb_-28" value="$m" style="text;html=1;strokeColor=none;fillColor=none;align=center;verticalAlign=middle;whiteSpace=wrap;rounded=0;fontSize=18;" parent="1" vertex="1">
          <mxGeometry x="295" y="10" width="40" height="20" as="geometry" />
        </mxCell>
        <mxCell id="rPzzLI58Q-UhKmW3YBb_-30" value="$g" style="text;html=1;strokeColor=none;fillColor=none;align=center;verticalAlign=middle;whiteSpace=wrap;rounded=0;fontSize=18;" parent="1" vertex="1">
          <mxGeometry x="335" y="10" width="40" height="20" as="geometry" />
        </mxCell>
        <mxCell id="rPzzLI58Q-UhKmW3YBb_-38" value="Nº" style="text;html=1;strokeColor=none;fillColor=none;align=center;verticalAlign=middle;whiteSpace=wrap;rounded=0;labelBackgroundColor=#FFFFFF;fontSize=18;" parent="1" vertex="1">
          <mxGeometry x="92.5" y="885" width="25" height="30" as="geometry" />
        </mxCell>
        <mxCell id="rPzzLI58Q-UhKmW3YBb_-39" value="Data de emissão" style="text;html=1;strokeColor=none;fillColor=none;align=center;verticalAlign=middle;whiteSpace=wrap;rounded=0;fontSize=18;" parent="1" vertex="1">
          <mxGeometry x="150" y="882.5" width="70" height="50" as="geometry" />
        </mxCell>
        <mxCell id="rPzzLI58Q-UhKmW3YBb_-44" value="&lt;span style=&quot;font-size: 20px&quot;&gt;Clientes&lt;/span&gt;" style="rounded=0;whiteSpace=wrap;html=1;" parent="1" vertex="1">
          <mxGeometry x="330" y="820" width="210" height="160" as="geometry" />
        </mxCell>
        <mxCell id="rPzzLI58Q-UhKmW3YBb_-45" value="Telefone" style="text;html=1;strokeColor=none;fillColor=none;align=center;verticalAlign=middle;whiteSpace=wrap;rounded=0;labelBackgroundColor=#FFFFFF;fontSize=18;" parent="1" vertex="1">
          <mxGeometry x="330" y="1040" width="60" height="30" as="geometry" />
        </mxCell>
        <mxCell id="rPzzLI58Q-UhKmW3YBb_-46" value="Nome" style="text;html=1;strokeColor=none;fillColor=none;align=center;verticalAlign=middle;whiteSpace=wrap;rounded=0;fontSize=18;" parent="1" vertex="1">
          <mxGeometry x="415" y="1045" width="40" height="20" as="geometry" />
        </mxCell>
        <mxCell id="rPzzLI58Q-UhKmW3YBb_-47" value="Endereço" style="text;html=1;strokeColor=none;fillColor=none;align=center;verticalAlign=middle;whiteSpace=wrap;rounded=0;fontSize=18;" parent="1" vertex="1">
          <mxGeometry x="490" y="1045" width="40" height="20" as="geometry" />
        </mxCell>
        <mxCell id="rPzzLI58Q-UhKmW3YBb_-51" value="Telefone" style="text;html=1;strokeColor=none;fillColor=none;align=center;verticalAlign=middle;whiteSpace=wrap;rounded=0;labelBackgroundColor=#FFFFFF;fontSize=18;" parent="1" vertex="1">
          <mxGeometry x="560" y="327.5" width="60" height="30" as="geometry" />
        </mxCell>
        <mxCell id="rPzzLI58Q-UhKmW3YBb_-54" value="Tempo de espera" style="text;html=1;strokeColor=none;fillColor=none;align=center;verticalAlign=middle;whiteSpace=wrap;rounded=0;fontSize=18;" parent="1" vertex="1">
          <mxGeometry x="700" y="882.5" width="77.5" height="65" as="geometry" />
        </mxCell>
        <mxCell id="rPzzLI58Q-UhKmW3YBb_-66" style="edgeStyle=orthogonalEdgeStyle;rounded=0;orthogonalLoop=1;jettySize=auto;html=1;exitX=1;exitY=0.5;exitDx=0;exitDy=0;entryX=-0.009;entryY=0.56;entryDx=0;entryDy=0;entryPerimeter=0;fontSize=18;endArrow=none;endFill=0;" parent="1" source="rPzzLI58Q-UhKmW3YBb_-63" target="rPzzLI58Q-UhKmW3YBb_-8" edge="1">
          <mxGeometry relative="1" as="geometry" />
        </mxCell>
        <mxCell id="rPzzLI58Q-UhKmW3YBb_-67" style="edgeStyle=orthogonalEdgeStyle;rounded=0;orthogonalLoop=1;jettySize=auto;html=1;exitX=0.5;exitY=1;exitDx=0;exitDy=0;entryX=0.692;entryY=0.012;entryDx=0;entryDy=0;entryPerimeter=0;fontSize=18;endArrow=none;endFill=0;" parent="1" source="rPzzLI58Q-UhKmW3YBb_-63" target="rPzzLI58Q-UhKmW3YBb_-44" edge="1">
          <mxGeometry relative="1" as="geometry" />
        </mxCell>
        <mxCell id="rPzzLI58Q-UhKmW3YBb_-63" value="&lt;font style=&quot;font-size: 18px&quot;&gt;Moram&lt;br&gt;em&lt;br&gt;&lt;/font&gt;" style="rhombus;whiteSpace=wrap;html=1;fontSize=18;" parent="1" vertex="1">
          <mxGeometry x="425" y="690" width="100" height="100" as="geometry" />
        </mxCell>
        <mxCell id="rPzzLI58Q-UhKmW3YBb_-71" style="edgeStyle=orthogonalEdgeStyle;rounded=0;orthogonalLoop=1;jettySize=auto;html=1;exitX=0.5;exitY=1;exitDx=0;exitDy=0;entryX=0.148;entryY=-0.01;entryDx=0;entryDy=0;entryPerimeter=0;fontSize=18;endArrow=none;endFill=0;" parent="1" source="rPzzLI58Q-UhKmW3YBb_-69" target="rPzzLI58Q-UhKmW3YBb_-44" edge="1">
          <mxGeometry relative="1" as="geometry" />
        </mxCell>
        <mxCell id="rPzzLI58Q-UhKmW3YBb_-72" style="edgeStyle=orthogonalEdgeStyle;rounded=0;orthogonalLoop=1;jettySize=auto;html=1;exitX=0;exitY=0.5;exitDx=0;exitDy=0;entryX=1.008;entryY=0.567;entryDx=0;entryDy=0;entryPerimeter=0;fontSize=18;endArrow=none;endFill=0;" parent="1" source="rPzzLI58Q-UhKmW3YBb_-69" target="rPzzLI58Q-UhKmW3YBb_-7" edge="1">
          <mxGeometry relative="1" as="geometry" />
        </mxCell>
        <mxCell id="rPzzLI58Q-UhKmW3YBb_-69" value="&lt;font style=&quot;font-size: 18px&quot;&gt;Fazem&lt;br&gt;&lt;/font&gt;" style="rhombus;whiteSpace=wrap;html=1;fontSize=18;" parent="1" vertex="1">
          <mxGeometry x="310" y="690" width="100" height="100" as="geometry" />
        </mxCell>
        <mxCell id="rPzzLI58Q-UhKmW3YBb_-76" style="edgeStyle=orthogonalEdgeStyle;rounded=0;orthogonalLoop=1;jettySize=auto;html=1;exitX=0.5;exitY=1;exitDx=0;exitDy=0;entryX=0.5;entryY=0;entryDx=0;entryDy=0;fontSize=18;endArrow=none;endFill=0;" parent="1" source="rPzzLI58Q-UhKmW3YBb_-74" target="rPzzLI58Q-UhKmW3YBb_-7" edge="1">
          <mxGeometry relative="1" as="geometry" />
        </mxCell>
        <mxCell id="wK370MBjEnxhLdyrCitH-18" style="edgeStyle=orthogonalEdgeStyle;rounded=0;orthogonalLoop=1;jettySize=auto;html=1;exitX=0.5;exitY=0;exitDx=0;exitDy=0;entryX=0.269;entryY=1.005;entryDx=0;entryDy=0;entryPerimeter=0;endArrow=none;endFill=0;" edge="1" parent="1" source="rPzzLI58Q-UhKmW3YBb_-74" target="wK370MBjEnxhLdyrCitH-17">
          <mxGeometry relative="1" as="geometry" />
        </mxCell>
        <mxCell id="wK370MBjEnxhLdyrCitH-70" style="edgeStyle=orthogonalEdgeStyle;rounded=0;orthogonalLoop=1;jettySize=auto;html=1;exitX=1;exitY=1;exitDx=0;exitDy=0;entryX=0;entryY=0.5;entryDx=0;entryDy=0;endArrow=none;endFill=0;" edge="1" parent="1" source="rPzzLI58Q-UhKmW3YBb_-74" target="wK370MBjEnxhLdyrCitH-68">
          <mxGeometry relative="1" as="geometry" />
        </mxCell>
        <mxCell id="rPzzLI58Q-UhKmW3YBb_-74" value="&lt;font style=&quot;font-size: 18px&quot;&gt;Têm&lt;br&gt;&lt;/font&gt;" style="rhombus;whiteSpace=wrap;html=1;fontSize=18;" parent="1" vertex="1">
          <mxGeometry x="95" y="460" width="100" height="100" as="geometry" />
        </mxCell>
        <mxCell id="rPzzLI58Q-UhKmW3YBb_-77" value="Nº" style="text;html=1;strokeColor=none;fillColor=default;align=center;verticalAlign=middle;whiteSpace=wrap;rounded=0;labelBackgroundColor=#FFFFFF;fontSize=18;" parent="1" vertex="1">
          <mxGeometry x="640" y="60" width="60" height="30" as="geometry" />
        </mxCell>
        <mxCell id="rPzzLI58Q-UhKmW3YBb_-78" value="Nome" style="text;html=1;strokeColor=none;fillColor=none;align=center;verticalAlign=middle;whiteSpace=wrap;rounded=0;fontSize=18;" parent="1" vertex="1">
          <mxGeometry x="737.5" y="65" width="40" height="20" as="geometry" />
        </mxCell>
        <mxCell id="rPzzLI58Q-UhKmW3YBb_-85" value="1...N" style="text;html=1;strokeColor=none;fillColor=none;align=center;verticalAlign=middle;whiteSpace=wrap;rounded=0;labelBackgroundColor=#FFFFFF;fontSize=18;" parent="1" vertex="1">
          <mxGeometry x="155" y="430" width="30" height="30" as="geometry" />
        </mxCell>
        <mxCell id="rPzzLI58Q-UhKmW3YBb_-86" value="1...N" style="text;html=1;strokeColor=none;fillColor=none;align=center;verticalAlign=middle;whiteSpace=wrap;rounded=0;labelBackgroundColor=#FFFFFF;fontSize=18;" parent="1" vertex="1">
          <mxGeometry x="155" y="560" width="30" height="30" as="geometry" />
        </mxCell>
        <mxCell id="rPzzLI58Q-UhKmW3YBb_-87" value="1...N" style="text;html=1;strokeColor=none;fillColor=none;align=center;verticalAlign=middle;whiteSpace=wrap;rounded=0;labelBackgroundColor=#FFFFFF;fontSize=18;" parent="1" vertex="1">
          <mxGeometry x="280" y="700" width="30" height="30" as="geometry" />
        </mxCell>
        <mxCell id="rPzzLI58Q-UhKmW3YBb_-88" value="1...1" style="text;html=1;strokeColor=none;fillColor=none;align=center;verticalAlign=middle;whiteSpace=wrap;rounded=0;labelBackgroundColor=#FFFFFF;fontSize=18;" parent="1" vertex="1">
          <mxGeometry x="370" y="790" width="30" height="30" as="geometry" />
        </mxCell>
        <mxCell id="rPzzLI58Q-UhKmW3YBb_-89" value="1...1" style="text;html=1;strokeColor=none;fillColor=none;align=center;verticalAlign=middle;whiteSpace=wrap;rounded=0;labelBackgroundColor=#FFFFFF;fontSize=18;" parent="1" vertex="1">
          <mxGeometry x="525" y="710" width="30" height="30" as="geometry" />
        </mxCell>
        <mxCell id="rPzzLI58Q-UhKmW3YBb_-90" value="1...N" style="text;html=1;strokeColor=none;fillColor=none;align=center;verticalAlign=middle;whiteSpace=wrap;rounded=0;labelBackgroundColor=#FFFFFF;fontSize=18;" parent="1" vertex="1">
          <mxGeometry x="490" y="790" width="30" height="30" as="geometry" />
        </mxCell>
        <mxCell id="rPzzLI58Q-UhKmW3YBb_-91" value="1...N" style="text;html=1;strokeColor=none;fillColor=none;align=center;verticalAlign=middle;whiteSpace=wrap;rounded=0;labelBackgroundColor=#FFFFFF;fontSize=18;" parent="1" vertex="1">
          <mxGeometry x="630" y="580" width="30" height="30" as="geometry" />
        </mxCell>
        <mxCell id="rPzzLI58Q-UhKmW3YBb_-93" value="1...1" style="text;html=1;strokeColor=none;fillColor=none;align=center;verticalAlign=middle;whiteSpace=wrap;rounded=0;labelBackgroundColor=#FFFFFF;fontSize=18;" parent="1" vertex="1">
          <mxGeometry x="630" y="460" width="30" height="30" as="geometry" />
        </mxCell>
        <mxCell id="rPzzLI58Q-UhKmW3YBb_-94" value="1...1" style="text;html=1;strokeColor=none;fillColor=none;align=center;verticalAlign=middle;whiteSpace=wrap;rounded=0;labelBackgroundColor=#FFFFFF;fontSize=18;" parent="1" vertex="1">
          <mxGeometry x="790" y="460" width="30" height="30" as="geometry" />
        </mxCell>
        <mxCell id="rPzzLI58Q-UhKmW3YBb_-95" value="1...N" style="text;html=1;strokeColor=none;fillColor=none;align=center;verticalAlign=middle;whiteSpace=wrap;rounded=0;labelBackgroundColor=#FFFFFF;fontSize=18;" parent="1" vertex="1">
          <mxGeometry x="790" y="590" width="30" height="30" as="geometry" />
        </mxCell>
        <mxCell id="mzNYYs1BfRsVb-kruQ12-3" value="Quantidade" style="text;html=1;strokeColor=none;fillColor=none;align=center;verticalAlign=middle;whiteSpace=wrap;rounded=0;fontSize=18;" parent="1" vertex="1">
          <mxGeometry x="250" y="530" width="100" height="20" as="geometry" />
        </mxCell>
        <mxCell id="wK370MBjEnxhLdyrCitH-11" style="edgeStyle=orthogonalEdgeStyle;rounded=0;orthogonalLoop=1;jettySize=auto;html=1;exitX=0.25;exitY=0;exitDx=0;exitDy=0;entryX=1;entryY=0.5;entryDx=0;entryDy=0;endArrow=none;endFill=0;" edge="1" parent="1" source="wK370MBjEnxhLdyrCitH-1" target="wK370MBjEnxhLdyrCitH-5">
          <mxGeometry relative="1" as="geometry">
            <Array as="points">
              <mxPoint x="353" y="170" />
            </Array>
          </mxGeometry>
        </mxCell>
        <mxCell id="wK370MBjEnxhLdyrCitH-1" value="&lt;font style=&quot;font-size: 20px&quot;&gt;Tamanhos&lt;/font&gt;" style="rounded=0;whiteSpace=wrap;html=1;" vertex="1" parent="1">
          <mxGeometry x="300" y="227.5" width="210" height="160" as="geometry" />
        </mxCell>
        <mxCell id="wK370MBjEnxhLdyrCitH-4" style="edgeStyle=orthogonalEdgeStyle;rounded=0;orthogonalLoop=1;jettySize=auto;html=1;exitX=0.5;exitY=1;exitDx=0;exitDy=0;entryX=0.5;entryY=0;entryDx=0;entryDy=0;endArrow=none;endFill=0;" edge="1" parent="1" source="wK370MBjEnxhLdyrCitH-2" target="wK370MBjEnxhLdyrCitH-1">
          <mxGeometry relative="1" as="geometry" />
        </mxCell>
        <mxCell id="wK370MBjEnxhLdyrCitH-2" value="" style="ellipse;whiteSpace=wrap;html=1;aspect=fixed;fillColor=#000000;" vertex="1" parent="1">
          <mxGeometry x="390" y="170" width="30" height="30" as="geometry" />
        </mxCell>
        <mxCell id="wK370MBjEnxhLdyrCitH-3" value="Nome" style="text;html=1;strokeColor=none;fillColor=none;align=center;verticalAlign=middle;whiteSpace=wrap;rounded=0;fontSize=18;" vertex="1" parent="1">
          <mxGeometry x="381.25" y="140" width="47.5" height="20" as="geometry" />
        </mxCell>
        <mxCell id="wK370MBjEnxhLdyrCitH-5" value="&lt;font style=&quot;font-size: 18px&quot;&gt;Têm&lt;br&gt;&lt;/font&gt;" style="rhombus;whiteSpace=wrap;html=1;fontSize=18;" vertex="1" parent="1">
          <mxGeometry x="275" y="140" width="60" height="60" as="geometry" />
        </mxCell>
        <mxCell id="wK370MBjEnxhLdyrCitH-17" value="" style="rounded=0;whiteSpace=wrap;html=1;fillColor=none;dashed=1;" vertex="1" parent="1">
          <mxGeometry width="540" height="390" as="geometry" />
        </mxCell>
        <mxCell id="wK370MBjEnxhLdyrCitH-26" style="edgeStyle=orthogonalEdgeStyle;rounded=0;orthogonalLoop=1;jettySize=auto;html=1;exitX=0.5;exitY=1;exitDx=0;exitDy=0;entryX=0.133;entryY=0;entryDx=0;entryDy=0;entryPerimeter=0;endArrow=none;endFill=0;" edge="1" parent="1" source="wK370MBjEnxhLdyrCitH-19" target="rPzzLI58Q-UhKmW3YBb_-1">
          <mxGeometry relative="1" as="geometry" />
        </mxCell>
        <mxCell id="wK370MBjEnxhLdyrCitH-19" value="" style="ellipse;whiteSpace=wrap;html=1;aspect=fixed;labelBackgroundColor=default;fillColor=#000000;" vertex="1" parent="1">
          <mxGeometry x="40" y="30" width="30" height="30" as="geometry" />
        </mxCell>
        <mxCell id="wK370MBjEnxhLdyrCitH-27" style="edgeStyle=orthogonalEdgeStyle;rounded=0;orthogonalLoop=1;jettySize=auto;html=1;exitX=0.5;exitY=1;exitDx=0;exitDy=0;entryX=0.424;entryY=0;entryDx=0;entryDy=0;entryPerimeter=0;endArrow=none;endFill=0;" edge="1" parent="1" source="wK370MBjEnxhLdyrCitH-21" target="rPzzLI58Q-UhKmW3YBb_-1">
          <mxGeometry relative="1" as="geometry" />
        </mxCell>
        <mxCell id="wK370MBjEnxhLdyrCitH-21" value="" style="ellipse;whiteSpace=wrap;html=1;aspect=fixed;labelBackgroundColor=default;fillColor=none;" vertex="1" parent="1">
          <mxGeometry x="100" y="30" width="30" height="30" as="geometry" />
        </mxCell>
        <mxCell id="wK370MBjEnxhLdyrCitH-33" style="edgeStyle=orthogonalEdgeStyle;rounded=0;orthogonalLoop=1;jettySize=auto;html=1;exitX=0.5;exitY=1;exitDx=0;exitDy=0;entryX=0.857;entryY=-0.006;entryDx=0;entryDy=0;entryPerimeter=0;endArrow=none;endFill=0;" edge="1" parent="1" source="wK370MBjEnxhLdyrCitH-22" target="rPzzLI58Q-UhKmW3YBb_-1">
          <mxGeometry relative="1" as="geometry" />
        </mxCell>
        <mxCell id="wK370MBjEnxhLdyrCitH-22" value="" style="ellipse;whiteSpace=wrap;html=1;aspect=fixed;labelBackgroundColor=default;fillColor=none;" vertex="1" parent="1">
          <mxGeometry x="190" y="30" width="30" height="30" as="geometry" />
        </mxCell>
        <mxCell id="wK370MBjEnxhLdyrCitH-29" style="edgeStyle=orthogonalEdgeStyle;rounded=0;orthogonalLoop=1;jettySize=auto;html=1;exitX=0.5;exitY=1;exitDx=0;exitDy=0;entryX=1;entryY=0;entryDx=0;entryDy=0;endArrow=none;endFill=0;" edge="1" parent="1" source="wK370MBjEnxhLdyrCitH-23" target="rPzzLI58Q-UhKmW3YBb_-1">
          <mxGeometry relative="1" as="geometry" />
        </mxCell>
        <mxCell id="wK370MBjEnxhLdyrCitH-23" value="" style="ellipse;whiteSpace=wrap;html=1;aspect=fixed;labelBackgroundColor=default;fillColor=none;" vertex="1" parent="1">
          <mxGeometry x="255" y="30" width="30" height="30" as="geometry" />
        </mxCell>
        <mxCell id="wK370MBjEnxhLdyrCitH-30" style="edgeStyle=orthogonalEdgeStyle;rounded=0;orthogonalLoop=1;jettySize=auto;html=1;exitX=0.5;exitY=1;exitDx=0;exitDy=0;entryX=1;entryY=0.131;entryDx=0;entryDy=0;entryPerimeter=0;endArrow=none;endFill=0;" edge="1" parent="1" source="wK370MBjEnxhLdyrCitH-24" target="rPzzLI58Q-UhKmW3YBb_-1">
          <mxGeometry relative="1" as="geometry" />
        </mxCell>
        <mxCell id="wK370MBjEnxhLdyrCitH-24" value="" style="ellipse;whiteSpace=wrap;html=1;aspect=fixed;labelBackgroundColor=default;fillColor=none;" vertex="1" parent="1">
          <mxGeometry x="300" y="30" width="30" height="30" as="geometry" />
        </mxCell>
        <mxCell id="wK370MBjEnxhLdyrCitH-31" style="edgeStyle=orthogonalEdgeStyle;rounded=0;orthogonalLoop=1;jettySize=auto;html=1;exitX=0.5;exitY=1;exitDx=0;exitDy=0;entryX=1;entryY=0.25;entryDx=0;entryDy=0;endArrow=none;endFill=0;" edge="1" parent="1" source="wK370MBjEnxhLdyrCitH-25" target="rPzzLI58Q-UhKmW3YBb_-1">
          <mxGeometry relative="1" as="geometry" />
        </mxCell>
        <mxCell id="wK370MBjEnxhLdyrCitH-25" value="" style="ellipse;whiteSpace=wrap;html=1;aspect=fixed;labelBackgroundColor=default;fillColor=none;" vertex="1" parent="1">
          <mxGeometry x="340" y="30" width="30" height="30" as="geometry" />
        </mxCell>
        <mxCell id="wK370MBjEnxhLdyrCitH-34" value="1...N" style="text;html=1;strokeColor=none;fillColor=none;align=center;verticalAlign=middle;whiteSpace=wrap;rounded=0;labelBackgroundColor=#FFFFFF;fontSize=18;" vertex="1" parent="1">
          <mxGeometry x="335" y="140" width="30" height="30" as="geometry" />
        </mxCell>
        <mxCell id="wK370MBjEnxhLdyrCitH-35" value="1...N" style="text;html=1;strokeColor=none;fillColor=none;align=center;verticalAlign=middle;whiteSpace=wrap;rounded=0;labelBackgroundColor=#FFFFFF;fontSize=18;" vertex="1" parent="1">
          <mxGeometry x="245" y="140" width="30" height="30" as="geometry" />
        </mxCell>
        <mxCell id="wK370MBjEnxhLdyrCitH-43" style="edgeStyle=orthogonalEdgeStyle;rounded=0;orthogonalLoop=1;jettySize=auto;html=1;exitX=0.5;exitY=1;exitDx=0;exitDy=0;entryX=0.286;entryY=-0.006;entryDx=0;entryDy=0;entryPerimeter=0;endArrow=none;endFill=0;" edge="1" parent="1" source="wK370MBjEnxhLdyrCitH-36" target="rPzzLI58Q-UhKmW3YBb_-6">
          <mxGeometry relative="1" as="geometry" />
        </mxCell>
        <mxCell id="wK370MBjEnxhLdyrCitH-36" value="" style="ellipse;whiteSpace=wrap;html=1;aspect=fixed;labelBackgroundColor=#FFFFFF;fillColor=#000000;" vertex="1" parent="1">
          <mxGeometry x="655" y="85" width="30" height="30" as="geometry" />
        </mxCell>
        <mxCell id="wK370MBjEnxhLdyrCitH-45" style="edgeStyle=orthogonalEdgeStyle;rounded=0;orthogonalLoop=1;jettySize=auto;html=1;exitX=0.5;exitY=1;exitDx=0;exitDy=0;entryX=0.695;entryY=0;entryDx=0;entryDy=0;entryPerimeter=0;endArrow=none;endFill=0;" edge="1" parent="1" source="wK370MBjEnxhLdyrCitH-38" target="rPzzLI58Q-UhKmW3YBb_-6">
          <mxGeometry relative="1" as="geometry" />
        </mxCell>
        <mxCell id="wK370MBjEnxhLdyrCitH-38" value="" style="ellipse;whiteSpace=wrap;html=1;aspect=fixed;labelBackgroundColor=#FFFFFF;fillColor=default;" vertex="1" parent="1">
          <mxGeometry x="742.5" y="90" width="30" height="30" as="geometry" />
        </mxCell>
        <mxCell id="wK370MBjEnxhLdyrCitH-47" style="edgeStyle=orthogonalEdgeStyle;rounded=0;orthogonalLoop=1;jettySize=auto;html=1;exitX=0.5;exitY=1;exitDx=0;exitDy=0;entryX=0.25;entryY=0;entryDx=0;entryDy=0;endArrow=none;endFill=0;" edge="1" parent="1" source="wK370MBjEnxhLdyrCitH-46" target="rPzzLI58Q-UhKmW3YBb_-12">
          <mxGeometry relative="1" as="geometry" />
        </mxCell>
        <mxCell id="wK370MBjEnxhLdyrCitH-46" value="" style="ellipse;whiteSpace=wrap;html=1;aspect=fixed;labelBackgroundColor=#FFFFFF;fillColor=default;" vertex="1" parent="1">
          <mxGeometry x="575" y="360" width="30" height="30" as="geometry" />
        </mxCell>
        <mxCell id="wK370MBjEnxhLdyrCitH-49" style="edgeStyle=orthogonalEdgeStyle;rounded=0;orthogonalLoop=1;jettySize=auto;html=1;exitX=0.5;exitY=0;exitDx=0;exitDy=0;entryX=0.571;entryY=1.006;entryDx=0;entryDy=0;entryPerimeter=0;endArrow=none;endFill=0;" edge="1" parent="1" source="wK370MBjEnxhLdyrCitH-48" target="rPzzLI58Q-UhKmW3YBb_-8">
          <mxGeometry relative="1" as="geometry" />
        </mxCell>
        <mxCell id="wK370MBjEnxhLdyrCitH-48" value="" style="ellipse;whiteSpace=wrap;html=1;aspect=fixed;labelBackgroundColor=#FFFFFF;fillColor=#FFFFFF;" vertex="1" parent="1">
          <mxGeometry x="716.25" y="845" width="30" height="30" as="geometry" />
        </mxCell>
        <mxCell id="wK370MBjEnxhLdyrCitH-53" style="edgeStyle=orthogonalEdgeStyle;rounded=0;orthogonalLoop=1;jettySize=auto;html=1;exitX=0.5;exitY=0;exitDx=0;exitDy=0;entryX=0.157;entryY=1.006;entryDx=0;entryDy=0;entryPerimeter=0;endArrow=none;endFill=0;" edge="1" parent="1" source="wK370MBjEnxhLdyrCitH-50" target="rPzzLI58Q-UhKmW3YBb_-44">
          <mxGeometry relative="1" as="geometry" />
        </mxCell>
        <mxCell id="wK370MBjEnxhLdyrCitH-50" value="" style="ellipse;whiteSpace=wrap;html=1;aspect=fixed;labelBackgroundColor=#FFFFFF;fillColor=#000000;" vertex="1" parent="1">
          <mxGeometry x="345" y="1010" width="30" height="30" as="geometry" />
        </mxCell>
        <mxCell id="wK370MBjEnxhLdyrCitH-54" style="edgeStyle=orthogonalEdgeStyle;rounded=0;orthogonalLoop=1;jettySize=auto;html=1;exitX=0.5;exitY=0;exitDx=0;exitDy=0;entryX=0.5;entryY=1;entryDx=0;entryDy=0;endArrow=none;endFill=0;" edge="1" parent="1" source="wK370MBjEnxhLdyrCitH-51" target="rPzzLI58Q-UhKmW3YBb_-44">
          <mxGeometry relative="1" as="geometry" />
        </mxCell>
        <mxCell id="wK370MBjEnxhLdyrCitH-51" value="" style="ellipse;whiteSpace=wrap;html=1;aspect=fixed;labelBackgroundColor=#FFFFFF;fillColor=default;" vertex="1" parent="1">
          <mxGeometry x="420" y="1010" width="30" height="30" as="geometry" />
        </mxCell>
        <mxCell id="wK370MBjEnxhLdyrCitH-56" style="edgeStyle=orthogonalEdgeStyle;rounded=0;orthogonalLoop=1;jettySize=auto;html=1;exitX=0.5;exitY=0;exitDx=0;exitDy=0;entryX=0.848;entryY=1.006;entryDx=0;entryDy=0;entryPerimeter=0;endArrow=none;endFill=0;" edge="1" parent="1" source="wK370MBjEnxhLdyrCitH-52" target="rPzzLI58Q-UhKmW3YBb_-44">
          <mxGeometry relative="1" as="geometry" />
        </mxCell>
        <mxCell id="wK370MBjEnxhLdyrCitH-52" value="" style="ellipse;whiteSpace=wrap;html=1;aspect=fixed;labelBackgroundColor=#FFFFFF;fillColor=default;" vertex="1" parent="1">
          <mxGeometry x="495" y="1010" width="30" height="30" as="geometry" />
        </mxCell>
        <mxCell id="wK370MBjEnxhLdyrCitH-67" style="edgeStyle=orthogonalEdgeStyle;rounded=0;orthogonalLoop=1;jettySize=auto;html=1;exitX=0.5;exitY=0;exitDx=0;exitDy=0;entryX=0.31;entryY=1;entryDx=0;entryDy=0;entryPerimeter=0;endArrow=none;endFill=0;" edge="1" parent="1" source="wK370MBjEnxhLdyrCitH-57" target="rPzzLI58Q-UhKmW3YBb_-7">
          <mxGeometry relative="1" as="geometry" />
        </mxCell>
        <mxCell id="wK370MBjEnxhLdyrCitH-57" value="" style="ellipse;whiteSpace=wrap;html=1;aspect=fixed;labelBackgroundColor=#FFFFFF;fillColor=#000000;" vertex="1" parent="1">
          <mxGeometry x="90" y="852.5" width="30" height="30" as="geometry" />
        </mxCell>
        <mxCell id="wK370MBjEnxhLdyrCitH-62" style="edgeStyle=orthogonalEdgeStyle;rounded=0;orthogonalLoop=1;jettySize=auto;html=1;exitX=0.5;exitY=0;exitDx=0;exitDy=0;entryX=0.69;entryY=1;entryDx=0;entryDy=0;entryPerimeter=0;endArrow=none;endFill=0;" edge="1" parent="1" source="wK370MBjEnxhLdyrCitH-58" target="rPzzLI58Q-UhKmW3YBb_-7">
          <mxGeometry relative="1" as="geometry" />
        </mxCell>
        <mxCell id="wK370MBjEnxhLdyrCitH-58" value="" style="ellipse;whiteSpace=wrap;html=1;aspect=fixed;labelBackgroundColor=#FFFFFF;fillColor=default;" vertex="1" parent="1">
          <mxGeometry x="170" y="852.5" width="30" height="30" as="geometry" />
        </mxCell>
        <mxCell id="wK370MBjEnxhLdyrCitH-68" value="" style="ellipse;whiteSpace=wrap;html=1;aspect=fixed;labelBackgroundColor=#FFFFFF;fillColor=default;" vertex="1" parent="1">
          <mxGeometry x="215" y="525" width="30" height="30" as="geometry" />
        </mxCell>
        <mxCell id="wK370MBjEnxhLdyrCitH-71" value="Nome" style="text;html=1;strokeColor=none;fillColor=none;align=center;verticalAlign=middle;whiteSpace=wrap;rounded=0;fontSize=18;" vertex="1" parent="1">
          <mxGeometry x="636.25" y="882.5" width="50" height="25" as="geometry" />
        </mxCell>
        <mxCell id="wK370MBjEnxhLdyrCitH-73" style="edgeStyle=orthogonalEdgeStyle;rounded=0;orthogonalLoop=1;jettySize=auto;html=1;exitX=0.5;exitY=0;exitDx=0;exitDy=0;entryX=0.25;entryY=1;entryDx=0;entryDy=0;endArrow=none;endFill=0;" edge="1" parent="1" source="wK370MBjEnxhLdyrCitH-72" target="rPzzLI58Q-UhKmW3YBb_-8">
          <mxGeometry relative="1" as="geometry" />
        </mxCell>
        <mxCell id="wK370MBjEnxhLdyrCitH-72" value="" style="ellipse;whiteSpace=wrap;html=1;aspect=fixed;labelBackgroundColor=#FFFFFF;fillColor=#000000;" vertex="1" parent="1">
          <mxGeometry x="646.25" y="845" width="30" height="30" as="geometry" />
        </mxCell>
      </root>
    </mxGraphModel>
  </diagram>
</mxfile>
